<?xml version="1.0" encoding="UTF-8"?>
<svg width="428px" height="428px" viewBox="0 0 428 428" version="1.1" xmlns="http://www.w3.org/2000/svg" xmlns:xlink="http://www.w3.org/1999/xlink">
    <!-- Generator: Sketch 63.1 (92452) - https://sketch.com -->
    <title>pastille-vitesse-2</title>
    <desc>Created with Sketch.</desc>
    <defs>
        <circle id="path-1" cx="144.392426" cy="144.392426" r="144.392426"></circle>
        <filter x="-43.8%" y="-31.0%" width="187.6%" height="187.6%" filterUnits="objectBoundingBox" id="filter-2">
            <feOffset dx="0" dy="37" in="SourceAlpha" result="shadowOffsetOuter1"></feOffset>
            <feGaussianBlur stdDeviation="36" in="shadowOffsetOuter1" result="shadowBlurOuter1"></feGaussianBlur>
            <feColorMatrix values="0 0 0 0 0.117647059   0 0 0 0 0.196078431   0 0 0 0 0.329411765  0 0 0 0.3 0" type="matrix" in="shadowBlurOuter1"></feColorMatrix>
        </filter>
        <polygon id="path-3" points="0.818682135 0.562440424 111.588444 0.562440424 111.588444 96.5649752 0.818682135 96.5649752"></polygon>
        <polygon id="path-5" points="0.00190517784 0.859091573 112.407398 0.859091573 112.407398 97.5624499 0.00190517784 97.5624499"></polygon>
    </defs>
    <g id="Dernière-itération" stroke="none" stroke-width="1" fill="none" fill-rule="evenodd">
        <g id="Artboard" transform="translate(-228.000000, -216.000000)">
            <g id="pastille-vitesse-2" transform="translate(297.000000, 249.000000)">
                <g id="Oval">
                    <use fill="black" fill-opacity="1" filter="url(#filter-2)" xlink:href="#path-1"></use>
                    <use fill="#69C1E4" fill-rule="evenodd" xlink:href="#path-1"></use>
                </g>
                <g id="icone-vitesse" transform="translate(73.110089, 73.110089)">
                    <g transform="translate(16.043603, 23.057429)">
                        <g id="Group-3" transform="translate(0.000000, 1.852061)">
                            <mask id="mask-4" fill="white">
                                <use xlink:href="#path-3"></use>
                            </mask>
                            <g id="Clip-2"></g>
                            <path d="M56.2049237,0.562440424 C25.6186543,0.562440424 0.818682135,25.2538705 0.818682135,55.7123253 C0.818682135,76.924028 8.65168475,84.0677673 19.8595738,96.0923393 L25.2076802,89.9133841 L87.1722286,89.9133841 L94.1914481,96.5666012 C104.784237,81.6151558 111.588444,77.0215904 111.588444,55.7123253 C111.588444,25.2538705 86.7911931,0.562440424 56.2049237,0.562440424" id="Fill-1" fill="#FFFFFF" mask="url(#mask-4)"></path>
                        </g>
                        <path d="M65.2338336,59.3576378 C65.2338336,64.3251926 61.1921349,68.3523537 56.2032907,68.3523537 C51.2144464,68.3523537 47.170026,64.3251926 47.170026,59.3576378 C47.170026,54.3927932 51.2144464,50.365632 56.2032907,50.365632 C61.1921349,50.365632 65.2338336,54.3927932 65.2338336,59.3576378" id="Fill-4" fill="#FF5201"></path>
                        <g id="Group-8" transform="translate(0.000000, 0.854586)">
                            <mask id="mask-6" fill="white">
                                <use xlink:href="#path-5"></use>
                            </mask>
                            <g id="Clip-7"></g>
                            <path d="M112.238653,57.6428765 L112.312139,57.2905676 C112.339356,56.9545192 112.339356,56.9545192 112.377459,56.5940801 L112.407398,56.2092505 C112.407398,54.079137 112.211437,51.9327631 112.010032,49.9164725 C110.730841,40.7998035 107.73699,32.7210907 103.11013,25.9025594 C101.003548,22.7561704 98.8098714,20.0379722 96.5889784,17.8265566 L96.00926,17.2520222 C95.7479784,17.1110987 95.5656257,17.0081161 95.383273,16.8238315 C91.5075969,13.1869201 87.7925001,10.3657393 83.6963678,7.95106866 C75.847035,3.63393025 67.597615,1.24907037 59.1794506,0.869660838 L56.7054411,0.872370906 C56.5339751,0.872370906 56.397891,0.875080974 56.2781369,0.869660838 C55.9814735,0.856923006 55.8508328,0.850690362 55.7093053,0.86695077 L55.1976289,0.869660838 C48.5512799,0.869660838 41.6273193,2.26263582 34.6189866,5.01064482 C27.8392751,7.78846458 21.5766834,11.9158982 16.503467,16.9457845 L16.503467,17.1490396 L16.2258553,17.4254666 C15.2351629,18.4092213 14.2526354,19.392976 13.4796776,20.3523401 C7.50286251,27.3280552 3.50198904,35.0192284 1.58864615,43.2198943 C0.52174656,47.8893416 0.00190517784,52.1468585 0.00190517784,56.230931 L0.00190517784,57.0331112 C0.00190517784,60.3014532 0.456426177,64.0386371 1.38996332,68.4587581 C3.42578193,76.5645716 7.60356477,84.6053435 13.4715125,91.6975916 C14.7561467,93.1583183 16.2149686,94.8250102 17.6329653,96.2396657 C18.150085,96.7518686 18.9665897,97.0716566 19.8239198,97.0906271 L19.8620233,97.0906271 C20.8064472,97.0906271 21.5494666,96.8114901 22.1264633,96.2396657 C22.7197901,95.5431782 23.3566638,94.7870692 24.0017026,94.02283 L24.3228612,93.6407104 C26.0157478,91.6298399 27.7358512,89.5891587 29.5430485,87.64875 C30.1635921,87.0335645 30.5010807,86.2693253 30.5010807,85.4888257 C30.5010807,84.662255 30.1499837,83.7977433 29.6709675,83.4427244 C29.0232071,82.8085684 28.046123,82.4291589 27.0962558,82.4264488 C26.5464759,82.4399992 25.7490229,82.6107335 25.1175925,83.3126411 C24.3228612,84.2069635 23.56079,85.1175464 22.8259357,85.9956085 C22.077473,86.8899309 21.3045151,87.8140641 20.4880103,88.724647 L19.8184764,89.4780459 L19.1026739,88.7598779 C18.9448163,88.605404 18.8114538,88.44551 18.6862564,88.2964562 C18.5420073,88.1203018 18.4276966,87.9793783 18.3487678,87.9441474 L18.1310332,87.7869634 C17.8534216,87.5186667 17.6710688,87.2747606 17.5050462,87.0579551 C17.3580753,86.8601202 17.2437646,86.7110664 17.0913504,86.5593026 L16.9688747,86.4373496 L16.9743181,86.4265093 C16.8355122,86.2584851 16.7620268,86.1121414 16.7103148,86.0145789 L16.5932825,85.8492648 L14.7888069,83.4508546 C12.6196259,80.2096132 10.8233153,76.9846322 9.44342222,73.8463734 C7.74509226,69.4940041 6.70268781,65.7920511 6.15835129,62.1822405 L6.15290792,62.1036485 C6.14746456,61.6673275 6.14474288,61.3827704 5.99505033,60.9410293 L5.57863289,59.6916879 L16.9607096,59.6916879 C17.8534216,59.6916879 18.7461335,59.2987281 19.3476253,58.6456017 C19.85658,58.0927478 20.096088,57.4071006 20.036211,56.7187433 C20.0334893,54.9436487 18.6835348,53.5723543 16.9607096,53.5723543 L5.94606004,53.5723543 L5.94606004,52.6238305 C5.94606004,52.1766692 6.0004937,51.7322181 6.05220567,51.3040273 C6.10391764,50.9246178 6.14746456,50.575019 6.14746456,50.2200001 C6.73806969,46.0221047 7.9111149,41.7374871 9.63666169,37.4447393 C10.654571,35.2143533 11.7024188,32.9189256 13.1612407,30.8375934 C13.7382374,29.669554 14.5846807,28.6099174 15.4093505,27.5882218 C15.5291046,27.4608486 15.5862599,27.3687063 15.6488586,27.279274 C15.7958295,27.0516283 15.937357,26.8537933 16.0816062,26.7074497 C16.1305964,26.6559584 16.2122469,26.5665261 16.2911757,26.4716737 C16.4571984,26.2331877 16.6395511,26.005542 16.8219038,25.7778963 C17.017865,25.5339902 17.1947744,25.3117646 17.3744054,25.0461779 L18.5692241,23.8266473 L24.8753627,30.1085851 C25.3952041,30.6207879 26.2171523,30.9378659 27.0690389,30.9595464 C27.1125859,30.9595464 27.1506894,30.9622565 27.1915147,30.9622565 C28.0842266,30.9622565 28.7973074,30.6831195 29.3715824,30.1112951 C30.3677183,28.9703565 30.6589383,26.9269652 29.3715824,25.6396828 L22.8014406,19.0975786 L23.9826508,18.5122039 C24.0479712,18.479683 24.1486735,18.3794105 24.2357673,18.2899783 C24.4072333,18.1219541 24.5977511,17.9322493 24.8617543,17.7750654 L25.6673724,17.0731577 C25.7762397,16.9891456 25.8796636,16.9295241 25.9912526,16.886163 C27.0690389,16.0406218 28.2829094,15.2655423 29.4124077,14.7018482 C31.7857149,13.3224235 34.2597244,11.8887975 36.9460252,10.8589717 C41.3687595,9.09742745 45.4540051,7.964619 49.4276618,7.39821478 C50.2523316,7.18953954 51.1477652,7.18953954 52.1820046,7.18953954 L53.1318718,7.18953954 L53.1318718,15.3522645 C53.1318718,16.2438769 53.5265158,17.1327792 54.185163,17.7289942 C54.7485513,18.2411971 55.4344153,18.4823931 56.114836,18.4119313 C57.8703213,18.4092213 59.2774312,17.0379268 59.2774312,15.3522645 L59.2774312,7.18953954 L60.2300201,7.18953954 C60.6872628,7.18953954 61.1499488,7.2437409 61.5554796,7.29523219 C61.9337934,7.34130335 62.2876122,7.38737451 62.6441526,7.38737451 C66.9280811,7.98900961 71.2882166,9.19227983 75.2918118,10.869812 C77.5208699,11.8779573 79.81797,12.9159133 81.9082223,14.3739299 C83.1030409,14.9593046 84.1563321,15.8021358 85.1769631,16.6151562 C85.2994388,16.7289791 85.3892543,16.7886006 85.4790699,16.845512 C85.7430731,17.0216664 85.9227041,17.1490396 86.0587883,17.284543 C86.0996135,17.3279041 86.1975941,17.4064961 86.292853,17.4905082 C86.5078659,17.6368519 86.7174355,17.8048761 86.927005,17.9701903 L86.9297267,17.9701903 L86.9814387,18.0135513 C87.2291118,18.2113863 87.4550115,18.3902508 87.724458,18.5664052 L88.9519369,19.7561251 L82.6376332,26.043483 C82.1259569,26.5529758 81.8047983,27.3687063 81.7857465,28.2250878 C81.7639731,29.1302505 82.0660799,29.9405608 82.6376332,30.5096751 C83.7916266,31.5096902 85.8737139,31.7535964 87.1284095,30.5096751 L93.4372699,24.2277374 L94.1122472,24.9025443 C94.2701048,25.0597283 94.4034672,25.2196223 94.5286646,25.368676 C94.6729138,25.5421204 94.7872245,25.6830439 94.8661533,25.723695 L95.0866096,25.8754588 L95.9330529,26.8266927 C96.017425,26.9378054 96.077302,27.038078 96.1181273,27.1410605 C96.9809007,28.235928 97.7565802,29.4500385 98.3145252,30.5584564 C99.705305,32.932476 101.142353,35.3850876 102.176593,38.0545046 C103.945687,42.4583652 105.080628,46.5261773 105.646738,50.4855868 C105.657625,50.9706889 105.703894,51.3257079 105.750162,51.6996972 C105.807317,52.1360182 105.859029,52.5777593 105.859029,53.0249205 L105.859029,53.9734443 L97.664043,53.9734443 C96.7658877,53.9734443 95.8731758,54.3636941 95.2771273,55.0195306 C94.7681727,55.5723845 94.5232213,56.2580317 94.5885416,56.946389 C94.5912633,58.6916728 95.9684347,60.0900679 97.664043,60.0900679 L105.859029,60.0900679 L105.859029,61.0413018 C105.859029,61.4884631 105.807317,61.9844055 105.752884,62.4478271 L105.736554,62.5806205 C105.69845,62.9627401 105.657625,63.3231791 105.657625,63.6456772 C105.086072,67.699939 103.945687,71.800272 102.171149,76.220393 C101.017156,79.0930651 99.4712403,81.9061158 97.4381434,84.8275691 C97.2367388,85.1283867 96.9754573,85.4942459 96.7087324,85.8628151 C96.4692243,86.1988636 96.2324379,86.5294919 96.0391985,86.8194691 L95.5955642,87.2828908 C95.4730885,87.5078264 95.2771273,87.7029513 95.1192698,87.8601353 C95.0321759,87.9495675 94.9260303,88.04984 94.8933701,88.1148817 L94.7409559,88.3289771 C94.5449947,88.5295221 94.4252407,88.6487651 94.2891566,88.9197719 L93.6985514,90.0932314 L87.1311312,83.5565472 C86.6140115,83.0416343 85.7920634,82.7245563 84.9401767,82.7055858 L84.8476395,82.7028758 C83.9712577,82.7028758 83.1874131,83.0036933 82.6376332,83.5565472 C81.6414974,84.6947758 81.344834,86.735457 82.6376332,88.0254494 L91.2898623,96.6407558 C92.5336713,97.8711267 94.5449947,97.8684166 95.7833603,96.6407558 C101.931641,90.518712 106.653761,82.8844503 109.438042,74.5672515 C111.269734,69.1010442 112.238653,63.2472972 112.238653,57.6428765" id="Fill-6" fill="#1E1777" mask="url(#mask-6)"></path>
                        </g>
                        <path d="M62.0894737,59.3576378 C62.0894737,62.588039 59.4494415,65.216805 56.2051958,65.216805 C52.9609501,65.216805 50.320918,62.588039 50.320918,59.3576378 C50.320918,56.1299468 52.9609501,53.4984707 56.2051958,53.4984707 C59.4494415,53.4984707 62.0894737,56.1299468 62.0894737,59.3576378 M56.2051958,28.3544593 C54.5749079,28.3544593 53.2494485,29.6742625 53.2494485,31.2975932 L53.2494485,48.7206207 L53.056209,48.7775322 C48.279656,50.1894776 45.0680705,54.4415744 45.0680705,59.3576378 C45.0680705,65.4715514 50.0650798,70.4445263 56.2051958,70.4445263 C62.3453119,70.4445263 67.3395995,65.4715514 67.3395995,59.3576378 C67.3395995,54.4415744 64.128014,50.1894776 59.3541826,48.7775322 L59.1609432,48.7206207 L59.1609432,31.2975932 C59.1609432,29.6742625 57.8354837,28.3544593 56.2051958,28.3544593" id="Fill-9" fill="#1E1777"></path>
                    </g>
                </g>
            </g>
        </g>
    </g>
</svg>