<?xml version="1.0" encoding="UTF-8"?>
<svg width="201px" height="200px" viewBox="0 0 201 200" version="1.1" xmlns="http://www.w3.org/2000/svg" xmlns:xlink="http://www.w3.org/1999/xlink">
    <!-- Generator: Sketch 63.1 (92452) - https://sketch.com -->
    <title>pastille-precision-2</title>
    <desc>Created with Sketch.</desc>
    <defs>
        <circle id="path-1" cx="94.1689734" cy="94.1689734" r="94.1689734"></circle>
        <filter x="-5.6%" y="-4.0%" width="111.2%" height="111.2%" filterUnits="objectBoundingBox" id="filter-2">
            <feOffset dx="0" dy="3" in="SourceAlpha" result="shadowOffsetOuter1"></feOffset>
            <feGaussianBlur stdDeviation="3" in="shadowOffsetOuter1" result="shadowBlurOuter1"></feGaussianBlur>
            <feColorMatrix values="0 0 0 0 0.117647059   0 0 0 0 0.196078431   0 0 0 0 0.329411765  0 0 0 0.3 0" type="matrix" in="shadowBlurOuter1"></feColorMatrix>
        </filter>
        <polygon id="path-3" points="0.00105861137 0.306249706 91.3934483 0.306249706 91.3934483 92.5867645 0.00105861137 92.5867645"></polygon>
    </defs>
    <g id="Dernière-itération" stroke="none" stroke-width="1" fill="none" fill-rule="evenodd">
        <g id="Artboard" transform="translate(-117.000000, -334.000000)">
            <g id="pastille-precision-2" transform="translate(123.000000, 337.000000)">
                <g id="Oval">
                    <use fill="black" fill-opacity="1" filter="url(#filter-2)" xlink:href="#path-1"></use>
                    <use fill="#69C1E4" fill-rule="evenodd" xlink:href="#path-1"></use>
                </g>
                <g id="icone-precision" transform="translate(53.640554, 39.733744)">
                    <g transform="translate(2.621323, 0.999579)">
                        <polygon id="Fill-1" fill="#FDBA3D" points="80.1651103 3.01086761 80.1651103 11.9045728 89.4350172 11.9045728 81.3084106 21.3733864 71.3733429 21.0350873 71.3733429 10.7490143"></polygon>
                        <g id="Group-11" transform="translate(0.000000, 0.473981)">
                            <path d="M73.05777,54.6937049 C73.05777,74.4859824 57.1591916,90.5284816 37.548416,90.5284816 C17.9376404,90.5284816 2.03906193,74.4859824 2.03906193,54.6937049 C2.03906193,34.9032078 17.9376404,18.8589281 37.548416,18.8589281 C57.1591916,18.8589281 73.05777,34.9032078 73.05777,54.6937049" id="Fill-2" fill="#FF5201"></path>
                            <path d="M62.6336239,54.6937049 C62.6336239,68.6761406 51.4035216,80.0091602 37.5480631,80.0091602 C23.694369,80.0091602 12.4625024,68.6761406 12.4625024,54.6937049 C12.4625024,40.7130496 23.694369,29.3782495 37.5480631,29.3782495 C51.4035216,29.3782495 62.6336239,40.7130496 62.6336239,54.6937049" id="Fill-4" fill="#FFFFFF"></path>
                            <path d="M49.9350512,54.6937049 C49.9350512,61.5985674 44.389692,67.1947466 37.5492982,67.1947466 C30.7089044,67.1947466 25.1635451,61.5985674 25.1635451,54.6937049 C25.1635451,47.7906228 30.7089044,42.1944436 37.5492982,42.1944436 C44.389692,42.1944436 49.9350512,47.7906228 49.9350512,54.6937049" id="Fill-6" fill="#FF5201"></path>
                            <g id="Group-10">
                                <mask id="mask-4" fill="white">
                                    <use xlink:href="#path-3"></use>
                                </mask>
                                <g id="Clip-9"></g>
                                <path d="M73.059358,18.8589281 L73.059358,11.2703453 L73.1175816,11.2169297 L78.5094422,6.38815521 L78.5094422,11.4786663 C78.5094422,12.4615142 79.3969114,13.3571166 80.3725982,13.3588971 L85.385123,13.3588971 L80.547269,18.8589281 L73.059358,18.8589281 Z M45.3731419,44.1227484 L45.2496373,44.0337223 C43.0071455,42.3724957 40.3447379,41.4964791 37.5500039,41.4964791 C30.3390961,41.4964791 24.4708604,47.4167133 24.4708604,54.6937049 C24.4708604,61.9724769 30.3390961,67.8927111 37.5500039,67.8927111 C44.7609117,67.8927111 50.627383,61.9724769 50.627383,54.6937049 C50.627383,51.9000665 49.7469712,49.211479 48.0814227,46.9217283 L47.9914407,46.7970918 L48.1008306,46.6902605 L54.7983118,39.9296202 L54.9235808,40.079184 C58.2987868,44.1672615 60.1566497,49.3574818 60.1566497,54.6937049 C60.1566497,67.2730896 50.0151528,77.5075275 37.5500039,77.5075275 C25.084855,77.5075275 14.9433581,67.2730896 14.9433581,54.6937049 C14.9433581,42.1143201 25.084855,31.8781017 37.5500039,31.8781017 C42.864233,31.8781017 48.0073199,33.7440883 52.0335718,37.1306403 L52.1817774,37.2534963 L52.0441579,37.392377 L45.3731419,44.1227484 Z M36.1949813,56.029096 C36.5231509,56.3620535 37.0030547,56.5543499 37.5182456,56.5543499 L37.525303,56.5543499 C38.0440225,56.5525693 38.5309838,56.3584925 38.8573889,56.0166324 L45.3554984,49.4589715 L45.47371,49.6477068 C46.4088167,51.1522475 46.901071,52.8971586 46.901071,54.6937049 C46.901071,59.8981693 42.7072056,64.1340301 37.5500039,64.1340301 C32.3928022,64.1340301 28.1971724,59.8981693 28.1971724,54.6937049 C28.1971724,49.4892404 32.3928022,45.2551601 37.5500039,45.2551601 C39.3072988,45.2551601 41.0275423,45.7537062 42.5166556,46.6973826 L42.7054413,46.8166775 L36.2390902,53.3405085 C35.8968058,53.669905 35.697434,54.1559873 35.6886122,54.6776802 C35.6797905,55.2011535 35.8650475,55.6925774 36.1949813,56.029096 L36.1949813,56.029096 Z M71.3726372,54.6937049 C71.3726372,73.5138176 56.1992075,88.8280835 37.5500039,88.8280835 C18.9008003,88.8280835 3.72737063,73.5138176 3.72737063,54.6937049 C3.72737063,35.8735921 18.9008003,20.5611067 37.5500039,20.5611067 C45.8265805,20.5611067 53.7891023,23.6022376 59.9696284,29.1271959 L60.1090122,29.2518324 L54.7947831,34.6165439 L54.6712785,34.507932 C49.9128204,30.3895857 43.8328624,28.1194207 37.5500039,28.1194207 C23.031149,28.1194207 11.2152817,40.0400125 11.2152817,54.6937049 C11.2152817,69.3456167 23.031149,81.267989 37.5500039,81.267989 C52.0706232,81.267989 63.8829617,69.3456167 63.8829617,54.6937049 C63.8829617,48.3692923 61.6228265,42.2318345 57.518943,37.4137432 L57.4130819,37.2891067 L57.5295292,37.1715923 L62.7608337,31.8941264 L62.8843383,32.0347876 C68.3591235,38.2701741 71.3726372,46.3181315 71.3726372,54.6937049 L71.3726372,54.6937049 Z M82.7897608,21.9730603 L90.9463614,12.7107872 C91.405093,12.1766308 91.5268333,11.3504688 91.2374795,10.7023589 C90.9463614,10.0578101 90.2512066,9.60199661 89.5489944,9.60021609 L82.2357542,9.60021609 L82.2357542,2.21817375 C82.2428116,1.73921345 82.0363824,1.25313107 81.6658684,0.879221541 C81.2971188,0.507092537 80.7942784,0.307674124 80.3443685,0.305893602 C79.8238846,0.318357253 79.3069294,0.667339477 79.1075576,0.816903287 L69.9417475,9.0393518 C69.5571187,9.39367559 69.3295172,9.91892945 69.3330459,10.4477443 L69.3330459,19.9450463 L62.7290753,26.611319 L62.6038063,26.4973656 C55.6946028,20.2441739 46.7969742,16.8024258 37.5500039,16.8024258 C16.8470942,16.8024258 0.00105861137,33.801065 0.00105861137,54.6937049 C0.00105861137,75.5881252 16.8470942,92.5867645 37.5500039,92.5867645 C58.2529136,92.5867645 75.0989492,75.5881252 75.0989492,54.6937049 C75.0989492,45.3317225 71.6866919,36.3400887 65.4885223,29.3782495 L65.3773681,29.253613 L65.4955797,29.134318 L71.9513447,22.6176091 L81.3923938,22.6176091 C81.9181708,22.6158286 82.440419,22.3754582 82.7897608,21.9730603 L82.7897608,21.9730603 Z" id="Fill-8" fill="#1E1777" mask="url(#mask-4)"></path>
                            </g>
                        </g>
                    </g>
                </g>
            </g>
        </g>
    </g>
</svg>